<svg id="Layer_1" height="512" viewBox="0 0 512 512" width="512" xmlns="http://www.w3.org/2000/svg" data-name="Layer 1"><path d="m63.456 176.305 22.895-22.305-8.374-8.6-27.249 26.552a6 6 0 0 0 -.056 8.54l115.018 115.019a6 6 0 1 0 8.485-8.486z"/><path d="m103.448 69.911-35.614-36.184-34.036 34.598 35.618 35.618z"/><path d="m129.6 63.985h81.927v213.508h-81.927z" transform="matrix(.707 -.707 .707 .707 -70.774 170.615)"/><path d="m401.454 454.007 76.071 23.694-23.693-76.072z"/><path d="m295.883 220.616h81.927v232.811h-81.927z" transform="matrix(.707 -.707 .707 .707 -139.65 336.897)"/></svg>