<svg id="Layer_1" height="512" viewBox="0 0 512 512" width="512" xmlns="http://www.w3.org/2000/svg" data-name="Layer 1"><path d="m60 286h35.2a12.5 12.5 0 1 0 0-25h-35.2z"/><path d="m60 196h35.2a12.5 12.5 0 1 0 0-25h-35.2z"/><path d="m95.2 378h-17.2v34.289a52.811 52.811 0 0 1 40.836-19.289h26.164v-368h-26.167a41.038 41.038 0 0 0 -40.833 41.168v12.832h17.2a24.5 24.5 0 1 1 0 49h-17.2v31h17.2a24.5 24.5 0 1 1 0 49h-17.2v41h17.2a24.5 24.5 0 1 1 0 49h-17.2v31h17.2a24.5 24.5 0 1 1 0 49z"/><path d="m71.818 91h-11.818v25h35.2a12.5 12.5 0 1 0 0-25z"/><path d="m77.825 445.925a40.99 40.99 0 0 0 41.021 40.926h308.154v-81.851h-308.164a40.981 40.981 0 0 0 -41.011 40.925z"/><path d="m157 393h295v-154h-127.69a43 43 0 1 1 0-86h127.69v-128h-295z"/><path d="m60 366h35.2a12.5 12.5 0 1 0 0-25h-35.2z"/><path d="m292.812 196c0 17.368 14.13 31 31.5 31h127.688v-62h-127.69c-17.368 0-31.498 13.632-31.498 31z"/></svg>