<svg id="Layer_1" height="512" viewBox="0 0 512 512" width="512" xmlns="http://www.w3.org/2000/svg" data-name="Layer 1"><path d="m238.378 98a41.563 41.563 0 1 0 -.026 83.126c.007 0 .018-.126.023-.126h.044a41.5 41.5 0 0 0 -.023-83z"/><path d="m331.726 103.441a41.555 41.555 0 0 0 41.397 41.559h.65c22.66 0 40.955-18.814 40.79-41.466a41.376 41.376 0 0 0 -41.397-41.534h-.012a41.375 41.375 0 0 0 -41.428 41.441z"/><path d="m103.577 145h.019c22.777 0 40.958-18.3 41.424-41.564a41.375 41.375 0 0 0 -41.398-41.436h-.022a41.5 41.5 0 0 0 -.027 83z"/><path d="m313.375 275.366a63.784 63.784 0 0 0 -62.802-53.366h-24.285c-35.123 0-63.288 28.738-63.288 63.863v70.137h116.536c-.01-1-.022-1.387-.022-1.97a108.223 108.223 0 0 1 33.861-78.664z"/><path d="m323.911 266.781a108.334 108.334 0 0 1 64.222-21 109.9 109.9 0 0 1 61.867 19.234v-15.868c0-35.17-29-64.147-64.156-64.147h-24.181c-27.469 0-52.056 18.009-61.028 44a75.974 75.974 0 0 1 23.276 37.781z"/><path d="m176.58 228.934a64.9 64.9 0 0 0 -61-43.934h-24.063a63.777 63.777 0 0 0 -63.517 63.927v70.073h123v-33.146a75.546 75.546 0 0 1 25.58-56.92z"/><path d="m387.885 257.784c-53.14 0-96.371 43.12-96.371 96.121s43.231 96.121 96.371 96.121 96.371-43.12 96.371-96.121-43.232-96.121-96.371-96.121zm53.115 132.989a6.5 6.5 0 0 1 -6.346 6.227h-.654v17.6c0 3.313-2.387 6.4-5.7 6.4h-79.589a18.063 18.063 0 0 1 -17.861-18.113c0-.1.051-.395.052-.491 0-.067.1-.133.1-.2v-95.696a17.409 17.409 0 0 1 17.708-17.5h85.944c3.314 0 6.346 2.271 6.346 5.584z"/><path d="m368 301h61v84h-61z"/><path d="m356 385v-84h-7.29a5.406 5.406 0 0 0 -5.71 5.5v79.28a17.091 17.091 0 0 1 5.711-.776z"/><path d="m342.8 403a5.994 5.994 0 0 0 5.911 6h73.289v-12h-73.289a5.994 5.994 0 0 0 -5.911 6z"/></svg>